<svg width="32" height="32" viewBox="0 0 32 32" fill="none" xmlns="http://www.w3.org/2000/svg">
<g clip-path="url(#clip0_153_115)">
<path d="M15.9099 -8.40891e-06C15.7378 0.00767236 15.5742 0.0771558 15.4492 0.195695C14.0651 1.64939 13.2515 3.55344 13.1579 5.55851C13.2505 7.56461 14.0642 9.46985 15.4492 10.924L16.0594 11.5356L16.9849 12.4557L20.5239 15.9947L16.9849 19.535L17.5367 20.0868C19.1865 21.7983 20.1475 24.0579 20.2358 26.4335C20.2339 27.0268 20.166 27.618 20.0333 28.1962L30.7576 17.4719C31.1489 17.0805 31.3688 16.5496 31.3688 15.996C31.3688 15.4424 31.1489 14.9116 30.7576 14.5201L16.4318 0.195695C16.3623 0.129842 16.2803 0.0785933 16.1907 0.0449788C16.1011 0.0113643 16.0056 -0.00393302 15.9099 -8.40891e-06ZM11.9673 3.79582L1.24306 14.5201C0.851677 14.9116 0.631805 15.4424 0.631805 15.996C0.631805 16.5496 0.851677 17.0805 1.24306 17.4719L15.5675 31.799C15.6979 31.9295 15.8749 32.0028 16.0594 32.0028C16.2439 32.0028 16.4209 31.9295 16.5514 31.799C17.9359 30.3456 18.7495 28.4414 18.8428 26.4362C18.7491 24.4312 17.9355 22.5271 16.5514 21.0734L11.4767 15.996L15.0157 12.4557L14.4639 11.9039C12.8144 10.1929 11.8539 7.93356 11.7662 5.55851C11.7676 4.9653 11.835 4.37409 11.9673 3.79582Z" fill="#84CC16"/>
</g>
<defs>
<clipPath id="clip0_153_115">
<rect width="32" height="32" fill="white"/>
</clipPath>
</defs>
</svg>
